<svg xmlns="http://www.w3.org/2000/svg" viewBox="0 0 500 500"><path d="M140.44,197.14c-82.77,55.89-1.96,180.38,82.79,127.48,0,0,105.15-68.29,105.15-68.29,21.77-14.67.54-47.5-21.79-33.55,0,0-105.15,68.29-105.15,68.29-40.1,25.06-78.45-33.9-39.21-60.39,0,0,135.57-88.04,135.57-88.04l-21.79-33.55-135.57,88.04Z"/><path d="M359.56,302.85c82.77-55.89,1.96-180.38-82.79-127.48,0,0-105.15,68.29-105.15,68.29-21.77,14.67-.54,47.5,21.79,33.55,0,0,105.15-68.29,105.15-68.29,40.1-25.06,78.45,33.9,39.21,60.39,0,0-135.59,88.05-135.59,88.05l21.79,33.55,135.59-88.05Z"/></svg>
